<svg width="36" height="36" viewBox="0 0 36 36" fill="none" xmlns="http://www.w3.org/2000/svg">
<path d="M18 5.79661C11.2881 5.79661 5.18644 9.61017 0 17.0847V18.9153C5.33898 26.3898 11.2881 30.2034 18 30.2034C24.7119 30.2034 30.8136 26.3898 36 18.9153V17.0847C30.661 9.61017 24.7119 5.79661 18 5.79661ZM18 27.1525C12.661 27.1525 7.62712 24.1017 3.05085 18C7.62712 11.8983 12.5085 8.84746 18 8.84746C23.4915 8.84746 28.3729 11.8983 32.9492 18C28.3729 24.1017 23.4915 27.1525 18 27.1525ZM21.2034 14.7966C19.5254 13.1186 18.3051 11.4407 18 10.3729C17.5424 11.4407 16.4746 13.1186 14.7966 14.7966C13.1186 16.4746 11.4407 17.6949 10.3729 18C11.4407 18.4576 13.1186 19.5254 14.7966 21.2034C16.4746 22.8814 17.6949 24.5593 18 25.6271C18.4576 24.5593 19.5254 22.8814 21.2034 21.2034C22.8814 19.5254 24.5593 18.3051 25.6271 18C24.5593 17.5424 22.8814 16.322 21.3559 14.7966H21.2034ZM4.27119 27.4576C4.27119 28.5254 3.66102 29.5932 2.89831 30.3559L2.59322 30.661C1.98305 31.2712 1.22034 31.5763 0.305085 31.7288H0C1.0678 31.7288 2.13559 32.339 2.89831 33.1017C3.66102 33.8644 4.11864 34.9322 4.27119 36C4.27119 34.9322 4.88136 33.8644 5.64407 33.1017C6.40678 32.339 7.32203 31.8814 8.23729 31.7288H8.54237C7.47458 31.7288 6.40678 31.1186 5.64407 30.3559C4.88136 29.5932 4.42373 28.5254 4.27119 27.4576ZM33.1017 2.89831C32.339 2.13559 31.8814 1.0678 31.7288 0C31.7288 1.0678 31.1186 2.13559 30.3559 2.89831L30.0508 3.20339C29.4407 3.81356 28.678 4.11864 27.7627 4.27119H27.4576C28.5254 4.27119 29.5932 4.88136 30.3559 5.64407C31.1186 6.40678 31.5763 7.47458 31.7288 8.54237C31.7288 7.47458 32.339 6.40678 33.1017 5.64407C33.8644 4.88136 34.7797 4.42373 35.6949 4.27119H36C34.9322 4.27119 33.8644 3.66102 33.1017 2.89831Z" fill="black"/>
</svg>
